<?xml version="1.0" encoding="UTF-8"?>
<svg id="Layer_1" data-name="Layer 1" xmlns="http://www.w3.org/2000/svg" viewBox="0 0 809.74 1179.21">
  <defs>
    <style>
      .cls-1 {
        fill: #4d4c4a;
      }

      .cls-1, .cls-2 {
        stroke-width: 0px;
      }

      .cls-2 {
        fill: #f0bd00;
      }
    </style>
  </defs>
  <path class="cls-1" d="M539.89,666.22l4.33,1.9c-1.33-.62-2.77-1.26-4.33-1.9Z"/>
  <g>
    <path class="cls-2" d="M264.97,1073.71c9.8.39,18.8,2.96,27.78,7.11,11.28,1.49,22.23,2.07,33.68,1.89,10.16-.72,19.89-2.05,29.85-4.82,1.59-.44,2.48-1.42,2.5-2.81l.35-22.73c-17.31,4.65-34.35,6-51.85,4.72-14.52-.76-28.13-3.51-42.18-7.88l-.13,24.52Z"/>
    <path class="cls-2" d="M539.52,1073.39l-.13-24.48c-18.34,6.59-36.54,9.22-55.44,8.55-13.3.12-25.82-1.37-38.68-4.81l.86,24.04c6.53,2.67,12.98,3.72,20.12,4.94,15.12,1.89,29.61,1.53,44.44-.39,9.25-4.43,18.6-6.73,28.83-7.85Z"/>
    <path class="cls-1" d="M265.38,1040.55c19.49,7.43,39.74,9.68,60.41,8.94,11.7-.42,22.73-1.77,33.67-5.51l.1-56.36c-31.85-1.94-62.81-6.37-93.91-12.15l-.27,65.08Z"/>
    <path class="cls-1" d="M299.1,1117.19c3.5,4.97,5.15,10.43,6.31,16.15l16.44-3.37c-3.69-18.49-15.79-33.55-32.74-40.68-20.7-10.25-41.93-9.65-61.03,3.55,26.89-3.92,55.24,1.94,71.02,24.34Z"/>
    <path class="cls-1" d="M332.83,1090.22l-25.66.42c12.2,9.28,19.81,22.34,22.76,37.31,10.33-2.6,19.92-5.8,28.82-11.52,2.84-4.22,3.2-8.88,3.25-13.71-.65-5.99-1.72-11.64-3.43-17.39l-25.74,4.89Z"/>
    <path class="cls-1" d="M550.45,1145.39c-34.07,2.25-71.73-2.3-102.88-16.59-3.08-1.41-5.73-2.5-8.4-4.72l.12,12.22c18.19,11.91,42.53,16.51,64.12,19.43,22.93,3.1,45.82,3.08,68.44-1.72,7.98-1.7,15.03-4.52,21.67-9.08v-12.21c-5.44,3.92-10.64,6.15-16.53,8.04-8.76,2.35-17.36,4.04-26.54,4.64Z"/>
    <path class="cls-1" d="M505.77,1134.18c7.47,1.73,14.72,1.6,22.2,1.96,2.93.14,5.68.36,8.66-.23,3.09.63,5.82-1.35,6.81-4.3,1.85-5.51-1.04-10.87-5.69-14.04-1.23-.84-.7-3.01.46-3.68.72-.42,2.02-.68,3.34-.06,8,3.76,10.7,13.17,7.26,21.55,9.53-.94,19.31-.26,19.91-8.65.66-9.29-8.74-11.53-6.31-15.03.73-1.05,2.03-1.15,3.23-.59,7.63,3.57,10.92,11.6,8.79,20.01,4.9-1.67,10.28-3.15,13.33-7.24,3.87-5.19,2.29-12.64-1.32-17.54-4.9-3.14-9.83-4.47-15.58-5.5-25.49-3.28-58.36,5.73-65.1,33.35Z"/>
    <path class="cls-1" d="M542.69,1082.17c-28.08.98-56.05,19.15-61.73,47.82l16.78,3.46c2.86-19.71,20.27-32.99,38.52-38.45,12.81-3.83,25.62-3.92,39.22-2.05-9.69-6.73-20.72-11.2-32.78-10.78Z"/>
    <path class="cls-1" d="M511.01,1047.91c10.06-1.09,19.21-3.67,28.22-7.5l-.11-64.16c-31.53,5.63-62.54,9.87-94.36,11.69l.48,56.22c20.73,6.22,43.69,6.8,65.77,3.75Z"/>
    <path class="cls-1" d="M354.2,1130.03c-25.44,10.29-52.1,15.13-79.59,15.94-14.01.41-27.49-.63-41.16-3.47-8.67-1.8-16.4-4.63-23.93-9.49l.13,11.66c11.09,9.45,32.89,12.31,47.82,12.98,30.39,1.35,70.46-3.74,98.18-16.49,2.86-1.32,6.8-2.98,8.52-5.43,1.4-3.5.56-7.51.57-11.43l-10.54,5.73Z"/>
    <path class="cls-1" d="M227.18,1130.4c-1.91-8.23,1.69-16.2,9.24-19.62,1.2-.54,2.71.31,3.18,1.24,1.53,3.04-6.33,4.92-6.55,14.63-.18,7.98,10.21,7.69,19.76,8.65-3.29-8.59.57-18.38,9.31-22.02,1.6-.67,3.37.27,3.69,1.43.42,1.53-.34,2.66-1.67,3.58-4.58,3.16-7.06,8.19-5.42,13.72.54,1.82,2.66,4.15,4.78,4.22,11.3.36,22.17-.38,33.71-1.75-3.89-18.15-19.35-28.31-37.12-32.2-12.48-2.74-25.27-2.96-37.31.88-4.6,1.47-7.4,4.34-8.41,8.95-.86,3.91-1.48,8.66,1.27,12.02,2.8,3.42,7.29,4.87,11.54,6.27Z"/>
    <path class="cls-1" d="M442.54,1109.07c.58,4.81,2.63,7.94,6.82,9.97,7.69,3.74,15.55,6.73,24.01,8.66,1.96-11.61,7.03-21.27,14.69-29.35l7.17-7.27-17.91-.2c-10.74-.77-21.14-2.17-31.48-5.67-2.45,7.64-4.28,15.76-3.3,23.86Z"/>
    <path class="cls-1" d="M492.25,1061.62c-2.61.98-4.91,4.02-5.09,7.49-.21,4.02,2.01,7.49,5.62,8.61,3.29,1.02,7.14-.35,9.32-3.66,2.18-3.32,2.03-7.28-.39-10.11-2.19-2.56-5.69-3.75-9.46-2.33ZM497.47,1071.91c-1.12,1.09-2.91,1.19-4.07.24-1.02-.83-1.63-2.53-1.29-4.15.29-1.38,1.46-1.65,2.53-1.62,1.18.03,2.52.29,3.44,1.78.85,1.39.18,2.97-.61,3.75Z"/>
    <path class="cls-1" d="M463.96,1060.07c-4.77-.19-8.7,3.93-8.41,9,.25,4.34,3.26,7.58,7.25,8,3.97.42,7.71-2.16,8.7-6.63,1.22-5.47-2.45-10.17-7.55-10.37ZM463.79,1071.75c-1.74,0-3.15-1.41-3.15-3.15s1.41-3.15,3.15-3.15,3.15,1.41,3.15,3.15-1.41,3.15-3.15,3.15Z"/>
    <path class="cls-1" d="M524.16,1073.19c5.74.71,9.56-4.31,8.84-9.31-.68-4.79-5.63-8.54-10.72-6.58-3.48,1.34-5.2,5.38-4.71,8.93.42,3,2.59,6.47,6.58,6.96ZM525.31,1062.13c1.61,0,2.92,1.31,2.92,2.92s-1.31,2.92-2.92,2.92-2.92-1.31-2.92-2.92,1.31-2.92,2.92-2.92Z"/>
    <path class="cls-1" d="M338.41,1076.49c4.31,1.76,9.62-.73,10.85-5.76.76-3.12-.32-5.85-1.83-7.73-1.75-2.18-4.67-2.88-7.52-2.66-2.78.22-4.4,2.14-5.57,4.4-2.39,4.64-.55,9.86,4.07,11.75ZM341.31,1065.48c1.66,0,3,1.34,3,3s-1.34,3-3,3-3-1.34-3-3,1.34-3,3-3Z"/>
    <path class="cls-1" d="M309.2,1077.82c4.6,0,8.32-3.73,8.32-8.32s-3.73-8.32-8.32-8.32-8.32,3.73-8.32,8.32,3.73,8.32,8.32,8.32ZM309.13,1066.33c1.74,0,3.14,1.41,3.14,3.14s-1.41,3.14-3.14,3.14-3.14-1.41-3.14-3.14,1.41-3.14,3.14-3.14Z"/>
    <path class="cls-1" d="M278.95,1073.41c3,.02,5.91-1.82,7.33-4.96,1.74-3.86.67-7.65-2.22-10.02-2.89-2.37-6.8-2.24-9.99.15-2.71,2.03-3.97,5.91-2.44,9.45,1.38,3.17,4.05,5.37,7.32,5.39ZM276.85,1062.71c1.23-.99,4.06-.83,4.97,1.01.82,1.66-.39,2.92-1.15,3.53-1.04.84-2.92,1.22-3.92.05-1.06-1.24-1.04-3.68.1-4.59Z"/>
    <path class="cls-2" d="M550.45,1145.39c-34.07,2.25-71.74-2.3-102.88-16.59-3.08-1.41-5.73-2.5-8.4-4.72l.11,12.22c18.2,11.91,42.53,16.51,64.13,19.43,22.93,3.1,45.82,3.08,68.44-1.72,7.98-1.7,15.03-4.52,21.67-9.09v-12.21c-5.45,3.93-10.64,6.15-16.53,8.04-8.76,2.34-17.36,4.03-26.54,4.64Z"/>
    <path class="cls-2" d="M511.01,1047.91c10.05-1.09,19.21-3.67,28.22-7.5l-.11-64.15c-31.53,5.63-62.55,9.87-94.36,11.68l.48,56.23c20.73,6.22,43.68,6.79,65.77,3.74Z"/>
    <path class="cls-2" d="M354.2,1130.03c-25.44,10.29-52.1,15.13-79.59,15.94-14,.41-27.48-.63-41.15-3.47-8.67-1.8-16.4-4.63-23.94-9.49l.13,11.67c11.1,9.44,32.9,12.31,47.82,12.97,30.39,1.36,70.47-3.74,98.18-16.49,2.86-1.32,6.8-2.98,8.52-5.43,1.4-3.5.56-7.51.58-11.43l-10.55,5.73Z"/>
    <path class="cls-2" d="M442.54,1109.07c.58,4.81,2.62,7.93,6.82,9.97,7.68,3.74,15.55,6.74,24,8.66,1.96-11.61,7.04-21.27,14.7-29.35l7.17-7.27-17.91-.2c-10.74-.76-21.14-2.17-31.48-5.67-2.46,7.64-4.28,15.76-3.3,23.86Z"/>
    <path class="cls-2" d="M227.18,1130.41c-1.91-8.24,1.69-16.21,9.24-19.62,1.2-.54,2.72.31,3.18,1.24,1.54,3.04-6.33,4.92-6.55,14.63-.18,7.98,10.22,7.69,19.76,8.65-3.29-8.6.58-18.38,9.32-22.03,1.59-.66,3.36.28,3.68,1.44.43,1.52-.34,2.66-1.67,3.57-4.58,3.16-7.06,8.19-5.42,13.73.54,1.82,2.66,4.15,4.78,4.22,11.3.35,22.17-.38,33.71-1.76-3.89-18.15-19.35-28.31-37.12-32.2-12.48-2.74-25.27-2.96-37.3.88-4.61,1.47-7.4,4.34-8.42,8.95-.86,3.9-1.48,8.66,1.28,12.02,2.8,3.42,7.28,4.87,11.53,6.28Z"/>
    <path class="cls-2" d="M332.83,1090.22l-25.66.42c12.2,9.28,19.81,22.34,22.76,37.31,10.33-2.59,19.92-5.8,28.82-11.52,2.84-4.22,3.2-8.88,3.25-13.71-.66-5.99-1.72-11.64-3.43-17.39l-25.74,4.89Z"/>
    <path class="cls-2" d="M265.38,1040.56c19.48,7.43,39.74,9.67,60.41,8.93,11.7-.42,22.73-1.77,33.67-5.51l.1-56.36c-31.85-1.94-62.82-6.36-93.92-12.15l-.26,65.09Z"/>
    <path class="cls-2" d="M505.77,1134.18c7.47,1.73,14.72,1.6,22.2,1.96,2.92.14,5.67.36,8.66-.23,3.09.63,5.82-1.34,6.81-4.29,1.85-5.52-1.04-10.87-5.69-14.05-1.24-.84-.7-3.01.45-3.67.73-.42,2.02-.69,3.35-.06,7.99,3.75,10.7,13.17,7.26,21.55,9.53-.94,19.31-.26,19.91-8.65.66-9.3-8.74-11.53-6.31-15.04.73-1.05,2.03-1.15,3.23-.59,7.63,3.58,10.92,11.6,8.8,20.01,4.89-1.67,10.27-3.15,13.33-7.24,3.87-5.19,2.29-12.64-1.32-17.54-4.9-3.14-9.83-4.47-15.58-5.51-25.49-3.28-58.36,5.73-65.1,33.35Z"/>
    <path class="cls-2" d="M542.68,1082.17c-28.08.99-56.05,19.15-61.73,47.82l16.77,3.46c2.87-19.7,20.28-32.99,38.53-38.45,12.81-3.83,25.62-3.92,39.22-2.05-9.69-6.74-20.72-11.2-32.79-10.78Z"/>
    <path class="cls-2" d="M299.1,1117.19c3.5,4.97,5.14,10.43,6.3,16.15l16.45-3.36c-3.69-18.5-15.79-33.55-32.74-40.68-20.7-10.25-41.93-9.65-61.03,3.55,26.89-3.92,55.24,1.93,71.02,24.34Z"/>
    <path class="cls-1" d="M549.43,1051.83h0l.25-77.08c0-.21.05-.39.14-.55,0,0-.39-.25-.02-.68l-.32-9.92c-12.69,2.95-25.48,5.38-38.56,7.27l-67.13,6.99c-3.34.21-6.67.38-10.01.54l.42,10.79.31,52.65c.83,7.05,1.3,13.84.93,21.19l.7,10.76c-.06,3.18.83,6.45-.11,9.36-3.15,9.78-4.32,19.69-2.77,30.05-1.68,2.14-3.32,4.16-3.69,6.9-.85,6.33-1.14,12.81.26,19.08.91,4.07,4.44,6.67,7.92,8.58,10.34,5.67,20.95,9.4,32.47,12.36,33.55,8.6,74.26,11.86,107.84,3.15,9.55-2.48,25.31-8.81,25.4-18.23l.13-14.7c.03-3.32-1.97-6.26-4.02-8.64.97-10.25-2.11-19.74-9.04-27.57-10.7-12.07-25.23-19.92-41.03-22.12l-.03-9.07-.04-10.34v-.76ZM539.52,1073.39c-10.23,1.12-19.58,3.42-28.83,7.85-14.83,1.92-29.32,2.28-44.44.39-7.14-1.22-13.59-2.27-20.12-4.94l-.86-24.04c12.86,3.44,25.38,4.93,38.68,4.81,18.9.67,37.1-1.96,55.44-8.55l.13,24.48ZM539.12,976.25l.11,64.15c-9.01,3.83-18.17,6.41-28.22,7.5-22.09,3.05-45.04,2.48-65.77-3.74l-.48-56.23c31.81-1.81,62.83-6.05,94.36-11.68ZM445.84,1085.21c10.34,3.5,20.74,4.91,31.48,5.67l17.91.2-7.17,7.27c-7.66,8.08-12.74,17.74-14.7,29.35-8.45-1.92-16.32-4.92-24-8.66-4.2-2.04-6.24-5.16-6.82-9.97-.98-8.1.84-16.22,3.3-23.86ZM593.53,1132.71v12.21c-6.65,4.57-13.7,7.39-21.68,9.09-22.62,4.8-45.51,4.82-68.44,1.72-21.6-2.92-45.93-7.52-64.13-19.43l-.11-12.22c2.67,2.22,5.32,3.31,8.4,4.72,31.14,14.29,68.81,18.84,102.88,16.59,9.18-.61,17.78-2.3,26.54-4.64,5.89-1.89,11.08-4.11,16.54-8.04ZM587.77,1123.88c-3.06,4.09-8.44,5.57-13.33,7.24,2.12-8.41-1.17-16.43-8.8-20.01-1.2-.56-2.5-.46-3.23.59-2.43,3.51,6.97,5.74,6.31,15.04-.6,8.39-10.38,7.71-19.91,8.65,3.44-8.38.73-17.8-7.26-21.55-1.33-.63-2.62-.36-3.35.06-1.15.66-1.69,2.83-.45,3.67,4.65,3.18,7.54,8.53,5.69,14.05-.99,2.95-3.72,4.92-6.81,4.29-2.99.59-5.74.37-8.66.23-7.48-.36-14.73-.23-22.2-1.96,6.74-27.62,39.61-36.63,65.1-33.35,5.75,1.04,10.68,2.37,15.58,5.51,3.61,4.9,5.19,12.35,1.32,17.54ZM575.47,1092.95c-13.6-1.87-26.41-1.78-39.22,2.05-18.25,5.46-35.66,18.75-38.53,38.45l-16.77-3.46c5.68-28.67,33.65-46.83,61.73-47.82,12.07-.42,23.1,4.04,32.79,10.78Z"/>
    <path class="cls-1" d="M203.78,1121.13c-2.2,3.14-4.2,6.76-4.16,11.05l.1,12.24c.03,3.53,1.25,6.55,4.02,8.78,6.05,4.87,12.97,8.01,20.63,10.02,35.39,9.3,79.69,5.15,114.79-4.73,10.05-2.83,34.79-11.23,35.01-19.57l.43-15.55c.1-3.79-1.75-7.29-3.56-10.18,1.07-9.77.48-18.82-2.38-28.16l-.51-11.25-.1-12.05,1.32-18.82c0-1.69-.01-3.39-.07-5.11-.03-.87.22-47.6.58-48.07l-.67-11.85c-29.49-1.46-58.88-4.77-88.13-9.73-8.33-1.55-16.54-3.23-24.7-5.11l-1.14,10.69.13,76.83-.69,11.62-.11,10.09c-25.33,3.19-52.39,21.3-50.79,48.86ZM214.37,1112.11c1.02-4.61,3.81-7.48,8.42-8.95,12.03-3.84,24.82-3.62,37.3-.88,17.77,3.89,33.23,14.05,37.12,32.2-11.54,1.38-22.41,2.11-33.71,1.76-2.12-.07-4.24-2.4-4.78-4.22-1.64-5.54.84-10.57,5.42-13.73,1.33-.91,2.1-2.05,1.67-3.57-.32-1.16-2.09-2.1-3.68-1.44-8.74,3.65-12.61,13.43-9.32,22.03-9.54-.96-19.94-.67-19.76-8.65.22-9.71,8.09-11.59,6.55-14.63-.46-.93-1.98-1.78-3.18-1.24-7.55,3.41-11.15,11.38-9.24,19.62-4.25-1.41-8.73-2.86-11.53-6.28-2.76-3.36-2.14-8.12-1.28-12.02ZM364.17,1135.73c-1.72,2.45-5.66,4.11-8.52,5.43-27.71,12.75-67.79,17.85-98.18,16.49-14.92-.66-36.72-3.53-47.82-12.97l-.13-11.67c7.54,4.86,15.27,7.69,23.94,9.49,13.67,2.84,27.15,3.88,41.15,3.47,27.49-.81,54.15-5.65,79.59-15.94l10.55-5.73c-.02,3.92.82,7.93-.58,11.43ZM358.75,1116.43c-8.9,5.72-18.49,8.93-28.82,11.52-2.95-14.97-10.56-28.03-22.76-37.31l25.66-.42,25.74-4.89c1.71,5.75,2.77,11.4,3.43,17.39-.05,4.83-.41,9.49-3.25,13.71ZM265.64,975.47c31.1,5.79,62.07,10.21,93.92,12.15l-.1,56.36c-10.94,3.74-21.97,5.09-33.67,5.51-20.67.74-40.93-1.5-60.41-8.93l.26-65.09ZM265.1,1049.19c14.05,4.37,27.66,7.12,42.18,7.88,17.5,1.28,34.54-.07,51.85-4.72l-.35,22.73c-.02,1.39-.91,2.37-2.5,2.81-9.96,2.77-19.69,4.1-29.85,4.82-11.45.18-22.4-.4-33.68-1.89-8.98-4.15-17.98-6.72-27.78-7.11l.13-24.52ZM289.11,1089.3c16.95,7.13,29.05,22.18,32.74,40.68l-16.45,3.36c-1.16-5.72-2.8-11.18-6.3-16.15-15.78-22.41-44.13-28.26-71.02-24.34,19.1-13.2,40.33-13.8,61.03-3.55Z"/>
  </g>
</svg>